# File created by Blade
# Date/Time:  Tue Jan 27 17:21:46 2015
#---------------------------------------------------------
:version 1.10
:name HOM
:units
  mass 1.0
  length 1.000000
  angle deg
:documentation
     Acclaim Skeleton File
:root
   axis xyz
   order TX TY TZ RX RY RZ
   position 0.000000 0.000000 0.000000
   orientation 0 0 0
:bonedata
   begin
      id 1
      name Spine_dum
      direction 0.000000 1.000000 0.000000
      length 7.539951
      axis 0.0 0.0 0.0 xyz
   end
   begin
      id 2
      name LeftUpLeg_dum
      direction 1.000000 0.000000 0.000000
      length 3.345476
      axis 0.0 0.0 0.0 xyz
   end
   begin
      id 3
      name RightUpLeg_dum
      direction -1.000000 0.000000 0.000000
      length 3.345476
      axis 0.0 0.0 0.0 xyz
   end
   begin
      id 4
      name Spine
      direction 0.000000 1.000000 0.000000
      length 0.000000
      axis 0.0 0.0 0.0 xyz
      dof rx ry rz
   end
   begin
      id 5
      name Spine_dum1
      direction 0.000000 1.000000 0.000000
      length 15.093809
      axis 0.0 0.0 0.0 xyz
   end
   begin
      id 6
      name Spine_dum2
      direction 0.000000 1.000000 0.000000
      length 9.738928
      axis 0.0 0.0 0.0 xyz
   end
   begin
      id 7
      name Spine_dum3
      direction 0.000000 1.000000 0.000000
      length 9.738928
      axis 0.0 0.0 0.0 xyz
   end
   begin
      id 8
      name Head
      direction 0.000000 1.000000 0.000000
      length 4.527550
      axis 0.0 0.0 0.0 xyz
      dof rx ry rz
   end
   begin
      id 9
      name LeftShoulder
      direction 1.000000 0.000000 0.000000
      length 7.084015
      axis 0.0 0.0 -90.0 xyz
      dof rx ry rz
   end
   begin
      id 10
      name LeftArm
      direction 1.000000 0.000000 0.000000
      length 10.259319
      axis 0.0 0.0 -90.0 xyz
      dof rx ry rz
   end
   begin
      id 11
      name LeftForeArm
      direction 1.000000 0.000000 0.000000
      length 9.896984
      axis 0.0 0.0 -90.0 xyz
      dof ry rz rx
   end
   begin
      id 12
      name LeftHand
      direction 0.000000 0.000000 0.000000
      length 0.000000
      axis 0.0 0.0 -90.0 xyz
      dof rx ry rz
   end
   begin
      id 13
      name LeftHand_dum1
      direction 0.000000 0.000000 0.000000
      length 0.000000
      axis 0.0 0.0 -90.0 xyz
   end
   begin
      id 14
      name LeftHand_dum2
      direction 1.000000 0.000000 0.000000
      length 3.937000
      axis 0.0 0.0 -90.0 xyz
   end
   begin
      id 15
      name LeftHandThumb1
      direction 0.000000 0.000000 1.000000
      length 3.937000
      axis 0.0 0.0 -90.0 xyz
      dof rx rz ry
   end
   begin
      id 16
      name RightShoulder
      direction -1.000000 0.000000 0.000000
      length 7.084015
      axis 0.0 0.0 90.0 xyz
      dof rx ry rz
   end
   begin
      id 17
      name RightArm
      direction -1.000000 0.000000 0.000000
      length 10.259319
      axis 0.0 0.0 90.0 xyz
      dof rx ry rz
   end
   begin
      id 18
      name RightForeArm
      direction -1.000000 0.000000 0.000000
      length 9.896984
      axis 0.0 0.0 90.0 xyz
      dof ry rz rx
   end
   begin
      id 19
      name RightHand
      direction 0.000000 0.000000 0.000000
      length 0.000000
      axis 0.0 0.0 90.0 xyz
      dof rx ry rz
   end
   begin
      id 20
      name RightHand_dum1
      direction 0.000000 0.000000 0.000000
      length 0.000000
      axis 0.0 0.0 90.0 xyz
   end
   begin
      id 21
      name RightHand_dum2
      direction -1.000000 0.000000 0.000000
      length 3.937000
      axis 0.0 0.0 90.0 xyz
   end
   begin
      id 22
      name RightHandThumb1
      direction 0.000000 0.000000 1.000000
      length 3.937000
      axis 0.0 0.0 90.0 xyz
      dof rx rz ry
   end
   begin
      id 23
      name LeftUpLeg
      direction 0.000000 -1.000000 0.000000
      length 19.114733
      axis 0.0 0.0 0.0 xyz
      dof rx ry rz
   end
   begin
      id 24
      name LeftLeg
      direction 0.000000 -1.000000 0.000000
      length 16.045604
      axis 0.0 0.0 0.0 xyz
      dof rx ry rz
   end
   begin
      id 25
      name LeftFoot
      direction 0.000000 -0.258819 0.965926
      length 5.543155
      axis 15.0 0.0 0.0 xyz
      dof rx ry rz
   end
   begin
      id 26
      name LeftToeBase
      direction 0.000000 0.000000 1.000000
      length 2.952750
      axis 0.0 0.0 0.0 xyz
      dof rx ry rz
   end
   begin
      id 27
      name RightUpLeg
      direction 0.000000 -1.000000 0.000000
      length 19.114733
      axis 0.0 0.0 0.0 xyz
      dof rx ry rz
   end
   begin
      id 28
      name RightLeg
      direction 0.000000 -1.000000 0.000000
      length 16.045604
      axis 0.0 0.0 0.0 xyz
      dof rx ry rz
   end
   begin
      id 29
      name RightFoot
      direction 0.000000 -0.258819 0.965926
      length 5.543155
      axis 15.0 0.0 0.0 xyz
      dof rx ry rz
   end
   begin
      id 30
      name RightToeBase
      direction 0.000000 0.000000 1.000000
      length 2.952750
      axis 0.0 0.0 0.0 xyz
      dof rx ry rz
   end
:hierarchy
   begin
      root Spine_dum LeftUpLeg_dum RightUpLeg_dum
      Spine_dum Spine
      LeftUpLeg_dum LeftUpLeg
      RightUpLeg_dum RightUpLeg
      Spine Spine_dum1 Spine_dum2 Spine_dum3
      Spine_dum1 Head
      Spine_dum2 LeftShoulder
      Spine_dum3 RightShoulder
      LeftShoulder LeftArm
      LeftArm LeftForeArm
      LeftForeArm LeftHand
      LeftHand LeftHand_dum1 LeftHand_dum2
      LeftHand_dum1 LeftHandThumb1
      RightShoulder RightArm
      RightArm RightForeArm
      RightForeArm RightHand
      RightHand RightHand_dum1 RightHand_dum2
      RightHand_dum1 RightHandThumb1
      LeftUpLeg LeftLeg
      LeftLeg LeftFoot
      LeftFoot LeftToeBase
      RightUpLeg RightLeg
      RightLeg RightFoot
      RightFoot RightToeBase
   end

# File created by Blade
# Date/Time:  Tue Jan 27 17:21:37 2015
# Frame Rate: 120.000 fps
#------------------------------------------------------
:FULLY-SPECIFIED
:DEGREES
1008
root -3.190823 36.516479 -0.832293 1.638489 -50.783418 -3.820184
Spine 2.332787 19.852084 0.486713
Head 9.408134 4.110106 1.970473
LeftShoulder -8.374319 -8.786833 10.861916
LeftArm -25.371542 -30.710155 -25.032465
LeftForeArm 8.550103 -0.000000 70.096939
LeftHand -18.724509 -0.000000 44.572758
LeftHandThumb1 -26.253704 0.000000 33.147579
RightShoulder -3.079613 -17.843611 1.691254
RightArm 33.297716 -32.895160 46.482170
RightForeArm 172.162349 0.000000 29.821946
RightHand 0.864916 -0.000000 -2.643838
RightHandThumb1 -24.326973 -0.000000 -32.862282
LeftUpLeg -47.261237 -2.685606 8.481121
LeftLeg 66.383150 -0.000000 -0.000000
LeftFoot 1.806404 -6.970265 -22.180825
LeftToeBase 13.747753 -0.000000 -0.000000
RightUpLeg -4.398193 -5.224782 8.566161
RightLeg 18.217261 -0.000000 -0.000000
RightFoot -16.263882 6.398613 -5.335688
RightToeBase 3.745402 -0.000000 -0.000000
1009
root -3.185680 36.515672 -0.837937 1.649534 -50.747358 -3.830767
Spine 2.316909 19.851109 0.485874
Head 9.381906 4.076387 1.977833
LeftShoulder -8.362037 -8.770229 10.871932
LeftArm -25.347955 -30.735659 -25.055654
LeftForeArm 8.570599 -0.000000 70.097662
LeftHand -18.701153 -0.000000 44.640950
LeftHandThumb1 -26.253704 0.000000 33.147579
RightShoulder -3.080743 -17.859832 1.691311
RightArm 33.305229 -32.883578 46.490759
RightForeArm 172.151063 -0.000000 29.813342
RightHand 0.874128 -0.000000 -2.642083
RightHandThumb1 -24.326973 -0.000000 -32.862282
LeftUpLeg -47.248522 -2.646145 8.449491
LeftLeg 66.355259 -0.000000 -0.000000
LeftFoot 1.802177 -7.051060 -22.514523
LeftToeBase 14.379540 -0.000000 -0.000000
RightUpLeg -4.419300 -5.229934 8.579195
RightLeg 18.228746 -0.000000 -0.000000
RightFoot -16.255681 6.371633 -5.341063
RightToeBase 3.714636 -0.000000 -0.000000
1010
root -3.179667 36.514729 -0.844229 1.659058 -50.715698 -3.842862
Spine 2.312330 19.840383 0.488901
Head 9.357036 4.076999 1.999222
LeftShoulder -8.347012 -8.783321 10.877855
LeftArm -25.366657 -30.695118 -25.046649
LeftForeArm 8.532592 -0.000000 70.118697
LeftHand -18.645377 0.000000 44.820897
LeftHandThumb1 -26.253704 0.000000 33.147579
RightShoulder -3.075631 -17.855812 1.687973
RightArm 33.311450 -32.890316 46.484708
RightForeArm 172.171399 0.000000 29.809558
RightHand 0.877057 0.000000 -2.635591
RightHandThumb1 -24.326973 -0.000000 -32.862282
LeftUpLeg -47.232218 -2.603190 8.413281
LeftLeg 66.326291 -0.000000 -0.000000
LeftFoot 1.807383 -7.081655 -22.618395
LeftToeBase 14.547079 -0.000000 -0.000000
RightUpLeg -4.456790 -5.247246 8.587029
RightLeg 18.272946 -0.000000 -0.000000
RightFoot -16.250971 6.391559 -5.324476
RightToeBase 3.701117 -0.000000 -0.000000
1011
root -3.174554 36.514087 -0.850775 1.693195 -50.653199 -3.864980
Spine 2.284236 19.804108 0.492079
Head 9.340074 4.056318 2.025337
LeftShoulder -8.337996 -8.787078 10.876150
LeftArm -25.353627 -30.667931 -25.041759
LeftForeArm 8.529299 -0.000000 70.123445
LeftHand -18.691046 -0.000000 44.868756
LeftHandThumb1 -26.253704 0.000000 33.147579
RightShoulder -3.087324 -17.863650 1.693147
RightArm 33.327062 -32.898510 46.470031
RightForeArm 172.160601 -0.000000 29.806215
RightHand 0.867207 0.000000 -2.655786
RightHandThumb1 -24.326973 -0.000000 -32.862282
LeftUpLeg -47.238075 -2.585693 8.385406
LeftLeg 66.293557 -0.000000 -0.000000
LeftFoot 1.836114 -7.120065 -22.600487
LeftToeBase 14.578335 -0.000000 -0.000000
RightUpLeg -4.492931 -5.269864 8.610354
RightLeg 18.277447 -0.000000 -0.000000
RightFoot -16.234033 6.358618 -5.331944
RightToeBase 3.645835 -0.000000 -0.000000
1012
root -3.168083 36.513096 -0.857186 1.708441 -50.607563 -3.877750
Spine 2.276224 19.792798 0.499602
Head 9.316456 4.019833 2.020904
LeftShoulder -8.313736 -8.796150 10.876355
LeftArm -25.337601 -30.657237 -25.052958
LeftForeArm 8.541787 -0.000000 70.109654
LeftHand -18.649868 -0.000000 44.782200
LeftHandThumb1 -26.253704 0.000000 33.147579
RightShoulder -3.099548 -17.856451 1.678747
RightArm 33.328122 -32.902922 46.488561
RightForeArm 172.136614 -0.000000 29.790547
RightHand 0.865963 -0.000000 -2.660487
RightHandThumb1 -24.326973 -0.000000 -32.862282
LeftUpLeg -47.231261 -2.555127 8.347207
LeftLeg 66.258816 -0.000000 -0.000000
LeftFoot 1.854108 -7.146038 -22.639170
LeftToeBase 14.625212 -0.000000 -0.000000
RightUpLeg -4.518024 -5.279097 8.625635
RightLeg 18.283808 -0.000000 -0.000000
RightFoot -16.220551 6.321508 -5.349602
RightToeBase 3.622687 -0.000000 -0.000000
